<svg width="34" height="35" viewBox="0 0 34 35" fill="none" xmlns="http://www.w3.org/2000/svg">
<path d="M22.2492 17.3801C22.2492 18.7725 21.6961 20.1078 20.7115 21.0924C19.727 22.077 18.3916 22.6301 16.9992 22.6301C15.6068 22.6301 14.2715 22.077 13.2869 21.0924C12.3023 20.1078 11.7492 18.7725 11.7492 17.3801C11.7492 17.0808 11.7807 16.7886 11.835 16.5051H9.99922V23.4998C9.99922 23.9863 10.393 24.3801 10.8795 24.3801H23.1207C23.3539 24.3796 23.5773 24.2867 23.742 24.1216C23.9067 23.9566 23.9992 23.733 23.9992 23.4998V16.5051H22.1635C22.2177 16.7886 22.2492 17.0808 22.2492 17.3801ZM16.9992 20.8801C17.459 20.88 17.9142 20.7893 18.3389 20.6133C18.7636 20.4372 19.1495 20.1792 19.4745 19.8541C19.7995 19.5289 20.0572 19.1429 20.2331 18.7181C20.4089 18.2933 20.4993 17.8381 20.4992 17.3783C20.4991 16.9186 20.4084 16.4634 20.2324 16.0387C20.0564 15.614 19.7984 15.2281 19.4732 14.9031C19.1481 14.5781 18.7621 14.3203 18.3373 14.1445C17.9125 13.9687 17.4572 13.8782 16.9975 13.8783C16.069 13.8786 15.1786 14.2476 14.5222 14.9043C13.8659 15.561 13.4972 16.4516 13.4975 17.3801C13.4977 18.3086 13.8668 19.1989 14.5235 19.8553C15.1802 20.5117 16.0707 20.8803 16.9992 20.8801ZM21.1992 13.7051H23.2975C23.4369 13.7051 23.5706 13.6498 23.6693 13.5514C23.7681 13.453 23.8238 13.3195 23.8242 13.1801V11.0818C23.8242 10.9421 23.7687 10.8081 23.6699 10.7094C23.5712 10.6106 23.4372 10.5551 23.2975 10.5551H21.1992C21.0595 10.5551 20.9255 10.6106 20.8268 10.7094C20.728 10.8081 20.6725 10.9421 20.6725 11.0818V13.1801C20.6742 13.4688 20.9105 13.7051 21.1992 13.7051ZM16.9992 0.580078C12.5436 0.580078 8.27044 2.35007 5.11983 5.50068C1.96921 8.6513 0.199219 12.9244 0.199219 17.3801C0.199219 21.8357 1.96921 26.1089 5.11983 29.2595C8.27044 32.4101 12.5436 34.1801 16.9992 34.1801C19.2054 34.1801 21.39 33.7455 23.4283 32.9013C25.4666 32.057 27.3186 30.8195 28.8786 29.2595C30.4386 27.6995 31.6761 25.8474 32.5204 23.8092C33.3647 21.7709 33.7992 19.5863 33.7992 17.3801C33.7992 15.1739 33.3647 12.9893 32.5204 10.951C31.6761 8.91273 30.4386 7.06071 28.8786 5.50068C27.3186 3.94066 25.4666 2.70318 23.4283 1.8589C21.39 1.01462 19.2054 0.580078 16.9992 0.580078ZM25.7492 24.1858C25.7492 25.2551 24.8742 26.1301 23.805 26.1301H10.1935C9.12422 26.1301 8.24922 25.2551 8.24922 24.1858V10.5743C8.24922 9.50508 9.12422 8.63008 10.1935 8.63008H23.805C24.8742 8.63008 25.7492 9.50508 25.7492 10.5743V24.1858Z" fill="white"/>
</svg>
