<svg width="149" height="38" viewBox="0 0 149 38" fill="none" xmlns="http://www.w3.org/2000/svg">
<path d="M47.04 25.8906C46.9067 25.8906 46.7933 25.844 46.7 25.7506C46.6067 25.6573 46.56 25.544 46.56 25.4106V12.3706C46.56 12.224 46.6067 12.1106 46.7 12.0306C46.7933 11.9373 46.9067 11.8906 47.04 11.8906H48.92C49.0667 11.8906 49.18 11.9373 49.26 12.0306C49.3533 12.1106 49.4 12.224 49.4 12.3706V23.4906H55.74C55.8867 23.4906 56.0067 23.5373 56.1 23.6306C56.1933 23.724 56.24 23.8373 56.24 23.9706V25.4106C56.24 25.544 56.1933 25.6573 56.1 25.7506C56.0067 25.844 55.8867 25.8906 55.74 25.8906H47.04ZM60.9611 26.0906C60.2811 26.0906 59.6544 25.9573 59.0811 25.6906C58.5211 25.4106 58.0744 25.0373 57.7411 24.5706C57.4211 24.104 57.2611 23.5906 57.2611 23.0306C57.2611 22.124 57.6278 21.3906 58.3611 20.8306C59.0944 20.2706 60.1011 19.8906 61.3811 19.6906L64.1211 19.2906V18.8706C64.1211 18.2973 63.9744 17.864 63.6811 17.5706C63.3878 17.2773 62.9211 17.1306 62.2811 17.1306C61.8411 17.1306 61.4878 17.2106 61.2211 17.3706C60.9544 17.5306 60.7344 17.6973 60.5611 17.8706C60.4011 18.0306 60.2944 18.1373 60.2411 18.1906C60.1878 18.3506 60.0878 18.4306 59.9411 18.4306H58.3811C58.2611 18.4306 58.1544 18.3906 58.0611 18.3106C57.9811 18.2306 57.9411 18.124 57.9411 17.9906C57.9544 17.6573 58.1144 17.284 58.4211 16.8706C58.7411 16.444 59.2278 16.0773 59.8811 15.7706C60.5344 15.4506 61.3411 15.2906 62.3011 15.2906C63.8744 15.2906 65.0211 15.644 65.7411 16.3506C66.4611 17.0573 66.8211 17.984 66.8211 19.1306V25.4106C66.8211 25.544 66.7744 25.6573 66.6811 25.7506C66.6011 25.844 66.4878 25.8906 66.3411 25.8906H64.6811C64.5478 25.8906 64.4344 25.844 64.3411 25.7506C64.2478 25.6573 64.2011 25.544 64.2011 25.4106V24.6306C63.9078 25.0573 63.4944 25.4106 62.9611 25.6906C62.4278 25.9573 61.7611 26.0906 60.9611 26.0906ZM61.6411 24.1706C62.3744 24.1706 62.9744 23.9306 63.4411 23.4506C63.9078 22.9706 64.1411 22.2773 64.1411 21.3706V20.9706L62.1411 21.2906C60.6078 21.5306 59.8411 22.044 59.8411 22.8306C59.8411 23.2573 60.0144 23.5906 60.3611 23.8306C60.7211 24.0573 61.1478 24.1706 61.6411 24.1706ZM73.3464 26.0906C72.3331 26.0906 71.4864 25.9373 70.8064 25.6306C70.1264 25.324 69.6197 24.9706 69.2864 24.5706C68.9664 24.1573 68.8064 23.804 68.8064 23.5106C68.8064 23.3773 68.8464 23.2706 68.9264 23.1906C69.0197 23.1106 69.1264 23.0706 69.2464 23.0706H70.8864C70.9931 23.0706 71.0864 23.124 71.1664 23.2306C71.2331 23.284 71.3797 23.4106 71.6064 23.6106C71.8464 23.8106 72.1131 23.9706 72.4064 24.0906C72.7131 24.1973 73.0464 24.2506 73.4064 24.2506C73.9397 24.2506 74.3731 24.1506 74.7064 23.9506C75.0397 23.7373 75.2064 23.4373 75.2064 23.0506C75.2064 22.784 75.1264 22.5706 74.9664 22.4106C74.8197 22.2373 74.5464 22.084 74.1464 21.9506C73.7597 21.804 73.1731 21.644 72.3864 21.4706C71.2531 21.2306 70.4131 20.864 69.8664 20.3706C69.3331 19.8773 69.0664 19.224 69.0664 18.4106C69.0664 17.8773 69.2264 17.3773 69.5464 16.9106C69.8664 16.4306 70.3397 16.044 70.9664 15.7506C71.6064 15.444 72.3664 15.2906 73.2464 15.2906C74.1531 15.2906 74.9331 15.4373 75.5864 15.7306C76.2397 16.0106 76.7331 16.3506 77.0664 16.7506C77.4131 17.1506 77.5864 17.504 77.5864 17.8106C77.5864 17.9306 77.5397 18.0373 77.4464 18.1306C77.3664 18.2106 77.2664 18.2506 77.1464 18.2506H75.6464C75.4997 18.2506 75.3864 18.1973 75.3064 18.0906C75.2131 18.024 75.0597 17.904 74.8464 17.7306C74.6464 17.544 74.4197 17.3973 74.1664 17.2906C73.9131 17.184 73.6064 17.1306 73.2464 17.1306C72.7531 17.1306 72.3731 17.2373 72.1064 17.4506C71.8397 17.664 71.7064 17.944 71.7064 18.2906C71.7064 18.5306 71.7664 18.7306 71.8864 18.8906C72.0197 19.0506 72.2797 19.204 72.6664 19.3506C73.0531 19.484 73.6331 19.624 74.4064 19.7706C76.8064 20.2373 78.0064 21.284 78.0064 22.9106C78.0064 23.8573 77.5931 24.624 76.7664 25.2106C75.9531 25.7973 74.8131 26.0906 73.3464 26.0906ZM80.5505 25.8906C80.4171 25.8906 80.3038 25.844 80.2105 25.7506C80.1171 25.6573 80.0705 25.544 80.0705 25.4106V12.1706C80.0705 12.024 80.1171 11.9106 80.2105 11.8306C80.3038 11.7373 80.4171 11.6906 80.5505 11.6906H82.2305C82.3771 11.6906 82.4905 11.7373 82.5705 11.8306C82.6638 11.9106 82.7105 12.024 82.7105 12.1706V25.4106C82.7105 25.544 82.6638 25.6573 82.5705 25.7506C82.4905 25.844 82.3771 25.8906 82.2305 25.8906H80.5505ZM89.863 26.0906C88.3696 26.0906 87.183 25.664 86.303 24.8106C85.4363 23.9573 84.9763 22.744 84.923 21.1706L84.903 20.6706C84.903 19.004 85.3363 17.6906 86.203 16.7306C87.083 15.7706 88.2963 15.2906 89.843 15.2906C91.4296 15.2906 92.6496 15.7706 93.503 16.7306C94.3696 17.6906 94.803 18.9706 94.803 20.5706V20.9906C94.803 21.124 94.7563 21.2373 94.663 21.3306C94.5696 21.424 94.4496 21.4706 94.303 21.4706H87.663V21.6306C87.6896 22.3773 87.8896 22.9973 88.263 23.4906C88.6496 23.9706 89.1763 24.2106 89.843 24.2106C90.603 24.2106 91.223 23.904 91.703 23.2906C91.823 23.144 91.9163 23.0573 91.983 23.0306C92.0496 22.9906 92.163 22.9706 92.323 22.9706H94.083C94.203 22.9706 94.303 23.004 94.383 23.0706C94.4763 23.1373 94.523 23.2306 94.523 23.3506C94.523 23.6706 94.3296 24.0506 93.943 24.4906C93.5696 24.9173 93.0296 25.2906 92.323 25.6106C91.6163 25.9306 90.7963 26.0906 89.863 26.0906ZM92.043 19.7706V19.7306C92.043 18.944 91.843 18.3173 91.443 17.8506C91.0563 17.3706 90.523 17.1306 89.843 17.1306C89.163 17.1306 88.6296 17.3706 88.243 17.8506C87.8563 18.3173 87.663 18.944 87.663 19.7306V19.7706H92.043ZM100.885 26.0906C99.8721 26.0906 99.0255 25.9373 98.3455 25.6306C97.6655 25.324 97.1588 24.9706 96.8255 24.5706C96.5055 24.1573 96.3455 23.804 96.3455 23.5106C96.3455 23.3773 96.3855 23.2706 96.4655 23.1906C96.5588 23.1106 96.6655 23.0706 96.7855 23.0706H98.4255C98.5321 23.0706 98.6255 23.124 98.7055 23.2306C98.7721 23.284 98.9188 23.4106 99.1455 23.6106C99.3855 23.8106 99.6521 23.9706 99.9455 24.0906C100.252 24.1973 100.585 24.2506 100.945 24.2506C101.479 24.2506 101.912 24.1506 102.245 23.9506C102.579 23.7373 102.745 23.4373 102.745 23.0506C102.745 22.784 102.665 22.5706 102.505 22.4106C102.359 22.2373 102.085 22.084 101.685 21.9506C101.299 21.804 100.712 21.644 99.9255 21.4706C98.7921 21.2306 97.9521 20.864 97.4055 20.3706C96.8721 19.8773 96.6055 19.224 96.6055 18.4106C96.6055 17.8773 96.7655 17.3773 97.0855 16.9106C97.4055 16.4306 97.8788 16.044 98.5055 15.7506C99.1455 15.444 99.9055 15.2906 100.785 15.2906C101.692 15.2906 102.472 15.4373 103.125 15.7306C103.779 16.0106 104.272 16.3506 104.605 16.7506C104.952 17.1506 105.125 17.504 105.125 17.8106C105.125 17.9306 105.079 18.0373 104.985 18.1306C104.905 18.2106 104.805 18.2506 104.685 18.2506H103.185C103.039 18.2506 102.925 18.1973 102.845 18.0906C102.752 18.024 102.599 17.904 102.385 17.7306C102.185 17.544 101.959 17.3973 101.705 17.2906C101.452 17.184 101.145 17.1306 100.785 17.1306C100.292 17.1306 99.9121 17.2373 99.6455 17.4506C99.3788 17.664 99.2455 17.944 99.2455 18.2906C99.2455 18.5306 99.3055 18.7306 99.4255 18.8906C99.5588 19.0506 99.8188 19.204 100.205 19.3506C100.592 19.484 101.172 19.624 101.945 19.7706C104.345 20.2373 105.545 21.284 105.545 22.9106C105.545 23.8573 105.132 24.624 104.305 25.2106C103.492 25.7973 102.352 26.0906 100.885 26.0906ZM111.63 25.8906C111.403 25.8906 111.216 25.8373 111.07 25.7306C110.936 25.6106 110.843 25.464 110.79 25.2906L106.75 12.4906L106.71 12.3106C106.71 12.204 106.75 12.1106 106.83 12.0306C106.923 11.9373 107.03 11.8906 107.15 11.8906H109.77C109.97 11.8906 110.13 11.9506 110.25 12.0706C110.383 12.1773 110.47 12.2973 110.51 12.4306L113.23 21.4706L115.97 12.4306C116.01 12.284 116.09 12.1573 116.21 12.0506C116.343 11.944 116.51 11.8906 116.71 11.8906H119.33C119.45 11.8906 119.55 11.9373 119.63 12.0306C119.71 12.1106 119.75 12.204 119.75 12.3106C119.75 12.3773 119.743 12.4373 119.73 12.4906L115.67 25.2906C115.63 25.464 115.536 25.6106 115.39 25.7306C115.256 25.8373 115.076 25.8906 114.85 25.8906H111.63ZM122.075 25.8906C121.942 25.8906 121.822 25.844 121.715 25.7506C121.622 25.644 121.575 25.524 121.575 25.3906V12.4106C121.575 12.264 121.622 12.144 121.715 12.0506C121.808 11.944 121.928 11.8906 122.075 11.8906H127.735C129.468 11.8906 130.828 12.284 131.815 13.0706C132.802 13.8573 133.295 15.0106 133.295 16.5306C133.295 18.0506 132.802 19.1906 131.815 19.9506C130.828 20.6973 129.468 21.0706 127.735 21.0706H125.455V25.3906C125.455 25.524 125.408 25.644 125.315 25.7506C125.222 25.844 125.102 25.8906 124.955 25.8906H122.075ZM127.635 18.2106C128.182 18.2106 128.608 18.0706 128.915 17.7906C129.235 17.4973 129.395 17.0706 129.395 16.5106C129.395 15.9906 129.248 15.5706 128.955 15.2506C128.675 14.9306 128.235 14.7706 127.635 14.7706H125.395V18.2106H127.635ZM135.649 25.8906C135.516 25.8906 135.396 25.844 135.289 25.7506C135.196 25.644 135.149 25.524 135.149 25.3906V12.4106C135.149 12.264 135.196 12.144 135.289 12.0506C135.382 11.944 135.502 11.8906 135.649 11.8906H137.909C138.216 11.8906 138.442 12.0173 138.589 12.2706L143.309 19.7306V12.4106C143.309 12.264 143.356 12.144 143.449 12.0506C143.542 11.944 143.662 11.8906 143.809 11.8906H146.349C146.496 11.8906 146.616 11.944 146.709 12.0506C146.802 12.144 146.849 12.264 146.849 12.4106V25.3706C146.849 25.5173 146.802 25.644 146.709 25.7506C146.616 25.844 146.496 25.8906 146.349 25.8906H144.089C143.782 25.8906 143.556 25.764 143.409 25.5106L138.709 18.3506V25.3906C138.709 25.5373 138.656 25.6573 138.549 25.7506C138.456 25.844 138.336 25.8906 138.189 25.8906H135.649Z" fill="#0B132A"/>
<path d="M31.1473 14.4231L31.1255 14.4014C31.1238 14.4001 31.1224 14.3985 31.1215 14.3966L17.5006 0.775391L3.87983 14.3963C3.87826 14.3979 3.8758 14.401 3.8758 14.401L3.85333 14.4228C1.77053 16.5173 0.447586 19.2479 0.0948177 22.1806C-0.25795 25.1133 0.379698 28.0798 1.90639 30.6085C3.43309 33.1373 5.76122 35.0831 8.52069 36.1366C11.2802 37.1901 14.3126 37.2911 17.136 36.4231C17.3735 36.3505 17.6275 36.3505 17.8651 36.4231C20.6882 37.2907 23.7205 37.1898 26.4798 36.1361C29.2391 35.0824 31.567 33.1367 33.0936 30.6082C34.6202 28.0796 35.2579 25.1133 34.9053 22.1808C34.5526 19.2482 33.2299 16.5176 31.1473 14.4231ZM8.7232 23.4052C8.65689 23.4715 8.6043 23.5503 8.56844 23.6368C8.53257 23.7234 8.5141 23.8162 8.51412 23.91C8.53835 26.314 9.21776 28.6658 10.4792 30.7125C10.5079 30.7589 10.5211 30.8132 10.517 30.8676C10.513 30.9219 10.4918 30.9736 10.4566 31.0153C10.4213 31.057 10.3738 31.0864 10.3209 31.0994C10.2679 31.1124 10.2122 31.1084 10.1616 31.0878C9.21332 30.6889 8.35182 30.109 7.62531 29.3807C6.13646 27.8916 5.29946 25.8724 5.2981 23.7666C5.29675 21.6609 6.13117 19.6406 7.61812 18.1497L17.5006 8.26812L27.3826 18.1497C28.8698 19.6404 29.7045 21.6607 29.703 23.7666C29.7018 25.8724 28.8647 27.8916 27.3757 29.3807C26.6492 30.109 25.7877 30.6889 24.8396 31.0878C24.7889 31.1084 24.7332 31.1124 24.6802 31.0994C24.6273 31.0864 24.5798 31.0568 24.5445 31.0153C24.5093 30.9736 24.488 30.9219 24.484 30.8674C24.4799 30.8131 24.4931 30.7587 24.5218 30.7123C25.7835 28.6658 26.4633 26.314 26.4879 23.91C26.4879 23.8162 26.4692 23.7234 26.4332 23.6367C26.3971 23.55 26.3444 23.4713 26.2779 23.405L21.6037 18.4471C21.5571 18.4083 21.4985 18.387 21.4378 18.387C21.3773 18.387 21.3186 18.4083 21.2721 18.4471C21.2255 18.4858 21.1942 18.5398 21.1833 18.5994C21.1724 18.6591 21.1828 18.7204 21.2127 18.7732C23.0281 22.0584 21.467 26.7771 18.8637 29.3807L18.85 29.3945C18.4907 29.7499 18.0056 29.9492 17.5002 29.949C16.9948 29.9488 16.5098 29.7492 16.1508 29.3936L16.1382 29.3807C13.5339 26.7771 11.9736 22.0589 13.7893 18.7739C13.8192 18.7211 13.8296 18.6598 13.8187 18.6001C13.8079 18.5405 13.7764 18.4865 13.7299 18.4478C13.6834 18.409 13.6247 18.3877 13.5642 18.3877C13.5036 18.3877 13.4449 18.409 13.3984 18.4478L8.7232 23.4052Z" fill="#F53838"/>
</svg>
