<svg width="149" height="37" viewBox="0 0 149 37" fill="none" xmlns="http://www.w3.org/2000/svg">
<path d="M47.04 25.1172C46.9067 25.1172 46.7933 25.0705 46.7 24.9772C46.6067 24.8839 46.56 24.7705 46.56 24.6372V11.5972C46.56 11.4505 46.6067 11.3372 46.7 11.2572C46.7933 11.1639 46.9067 11.1172 47.04 11.1172H48.92C49.0667 11.1172 49.18 11.1639 49.26 11.2572C49.3533 11.3372 49.4 11.4505 49.4 11.5972V22.7172H55.74C55.8867 22.7172 56.0067 22.7639 56.1 22.8572C56.1933 22.9505 56.24 23.0639 56.24 23.1972V24.6372C56.24 24.7705 56.1933 24.8839 56.1 24.9772C56.0067 25.0705 55.8867 25.1172 55.74 25.1172H47.04ZM60.9611 25.3172C60.2811 25.3172 59.6544 25.1839 59.0811 24.9172C58.5211 24.6372 58.0744 24.2639 57.7411 23.7972C57.4211 23.3305 57.2611 22.8172 57.2611 22.2572C57.2611 21.3505 57.6278 20.6172 58.3611 20.0572C59.0944 19.4972 60.1011 19.1172 61.3811 18.9172L64.1211 18.5172V18.0972C64.1211 17.5239 63.9744 17.0905 63.6811 16.7972C63.3878 16.5039 62.9211 16.3572 62.2811 16.3572C61.8411 16.3572 61.4878 16.4372 61.2211 16.5972C60.9544 16.7572 60.7344 16.9239 60.5611 17.0972C60.4011 17.2572 60.2944 17.3639 60.2411 17.4172C60.1878 17.5772 60.0878 17.6572 59.9411 17.6572H58.3811C58.2611 17.6572 58.1544 17.6172 58.0611 17.5372C57.9811 17.4572 57.9411 17.3505 57.9411 17.2172C57.9544 16.8839 58.1144 16.5105 58.4211 16.0972C58.7411 15.6705 59.2278 15.3039 59.8811 14.9972C60.5344 14.6772 61.3411 14.5172 62.3011 14.5172C63.8744 14.5172 65.0211 14.8705 65.7411 15.5772C66.4611 16.2839 66.8211 17.2105 66.8211 18.3572V24.6372C66.8211 24.7705 66.7744 24.8839 66.6811 24.9772C66.6011 25.0705 66.4878 25.1172 66.3411 25.1172H64.6811C64.5478 25.1172 64.4344 25.0705 64.3411 24.9772C64.2478 24.8839 64.2011 24.7705 64.2011 24.6372V23.8572C63.9078 24.2839 63.4944 24.6372 62.9611 24.9172C62.4278 25.1839 61.7611 25.3172 60.9611 25.3172ZM61.6411 23.3972C62.3744 23.3972 62.9744 23.1572 63.4411 22.6772C63.9078 22.1972 64.1411 21.5039 64.1411 20.5972V20.1972L62.1411 20.5172C60.6078 20.7572 59.8411 21.2705 59.8411 22.0572C59.8411 22.4839 60.0144 22.8172 60.3611 23.0572C60.7211 23.2839 61.1478 23.3972 61.6411 23.3972ZM73.3464 25.3172C72.3331 25.3172 71.4864 25.1639 70.8064 24.8572C70.1264 24.5505 69.6197 24.1972 69.2864 23.7972C68.9664 23.3839 68.8064 23.0305 68.8064 22.7372C68.8064 22.6039 68.8464 22.4972 68.9264 22.4172C69.0197 22.3372 69.1264 22.2972 69.2464 22.2972H70.8864C70.9931 22.2972 71.0864 22.3505 71.1664 22.4572C71.2331 22.5105 71.3797 22.6372 71.6064 22.8372C71.8464 23.0372 72.1131 23.1972 72.4064 23.3172C72.7131 23.4239 73.0464 23.4772 73.4064 23.4772C73.9397 23.4772 74.3731 23.3772 74.7064 23.1772C75.0397 22.9639 75.2064 22.6639 75.2064 22.2772C75.2064 22.0105 75.1264 21.7972 74.9664 21.6372C74.8197 21.4639 74.5464 21.3105 74.1464 21.1772C73.7597 21.0305 73.1731 20.8705 72.3864 20.6972C71.2531 20.4572 70.4131 20.0905 69.8664 19.5972C69.3331 19.1039 69.0664 18.4505 69.0664 17.6372C69.0664 17.1039 69.2264 16.6039 69.5464 16.1372C69.8664 15.6572 70.3397 15.2705 70.9664 14.9772C71.6064 14.6705 72.3664 14.5172 73.2464 14.5172C74.1531 14.5172 74.9331 14.6639 75.5864 14.9572C76.2397 15.2372 76.7331 15.5772 77.0664 15.9772C77.4131 16.3772 77.5864 16.7305 77.5864 17.0372C77.5864 17.1572 77.5397 17.2639 77.4464 17.3572C77.3664 17.4372 77.2664 17.4772 77.1464 17.4772H75.6464C75.4997 17.4772 75.3864 17.4239 75.3064 17.3172C75.2131 17.2505 75.0597 17.1305 74.8464 16.9572C74.6464 16.7705 74.4197 16.6239 74.1664 16.5172C73.9131 16.4105 73.6064 16.3572 73.2464 16.3572C72.7531 16.3572 72.3731 16.4639 72.1064 16.6772C71.8397 16.8905 71.7064 17.1705 71.7064 17.5172C71.7064 17.7572 71.7664 17.9572 71.8864 18.1172C72.0197 18.2772 72.2797 18.4305 72.6664 18.5772C73.0531 18.7105 73.6331 18.8505 74.4064 18.9972C76.8064 19.4639 78.0064 20.5105 78.0064 22.1372C78.0064 23.0839 77.5931 23.8505 76.7664 24.4372C75.9531 25.0239 74.8131 25.3172 73.3464 25.3172ZM80.5505 25.1172C80.4171 25.1172 80.3038 25.0705 80.2105 24.9772C80.1171 24.8839 80.0705 24.7705 80.0705 24.6372V11.3972C80.0705 11.2505 80.1171 11.1372 80.2105 11.0572C80.3038 10.9639 80.4171 10.9172 80.5505 10.9172H82.2305C82.3771 10.9172 82.4905 10.9639 82.5705 11.0572C82.6638 11.1372 82.7105 11.2505 82.7105 11.3972V24.6372C82.7105 24.7705 82.6638 24.8839 82.5705 24.9772C82.4905 25.0705 82.3771 25.1172 82.2305 25.1172H80.5505ZM89.863 25.3172C88.3696 25.3172 87.183 24.8905 86.303 24.0372C85.4363 23.1839 84.9763 21.9705 84.923 20.3972L84.903 19.8972C84.903 18.2305 85.3363 16.9172 86.203 15.9572C87.083 14.9972 88.2963 14.5172 89.843 14.5172C91.4296 14.5172 92.6496 14.9972 93.503 15.9572C94.3696 16.9172 94.803 18.1972 94.803 19.7972V20.2172C94.803 20.3505 94.7563 20.4639 94.663 20.5572C94.5696 20.6505 94.4496 20.6972 94.303 20.6972H87.663V20.8572C87.6896 21.6039 87.8896 22.2239 88.263 22.7172C88.6496 23.1972 89.1763 23.4372 89.843 23.4372C90.603 23.4372 91.223 23.1305 91.703 22.5172C91.823 22.3705 91.9163 22.2839 91.983 22.2572C92.0496 22.2172 92.163 22.1972 92.323 22.1972H94.083C94.203 22.1972 94.303 22.2305 94.383 22.2972C94.4763 22.3639 94.523 22.4572 94.523 22.5772C94.523 22.8972 94.3296 23.2772 93.943 23.7172C93.5696 24.1439 93.0296 24.5172 92.323 24.8372C91.6163 25.1572 90.7963 25.3172 89.863 25.3172ZM92.043 18.9972V18.9572C92.043 18.1705 91.843 17.5439 91.443 17.0772C91.0563 16.5972 90.523 16.3572 89.843 16.3572C89.163 16.3572 88.6296 16.5972 88.243 17.0772C87.8563 17.5439 87.663 18.1705 87.663 18.9572V18.9972H92.043ZM100.885 25.3172C99.8721 25.3172 99.0255 25.1639 98.3455 24.8572C97.6655 24.5505 97.1588 24.1972 96.8255 23.7972C96.5055 23.3839 96.3455 23.0305 96.3455 22.7372C96.3455 22.6039 96.3855 22.4972 96.4655 22.4172C96.5588 22.3372 96.6655 22.2972 96.7855 22.2972H98.4255C98.5321 22.2972 98.6255 22.3505 98.7055 22.4572C98.7721 22.5105 98.9188 22.6372 99.1455 22.8372C99.3855 23.0372 99.6521 23.1972 99.9455 23.3172C100.252 23.4239 100.585 23.4772 100.945 23.4772C101.479 23.4772 101.912 23.3772 102.245 23.1772C102.579 22.9639 102.745 22.6639 102.745 22.2772C102.745 22.0105 102.665 21.7972 102.505 21.6372C102.359 21.4639 102.085 21.3105 101.685 21.1772C101.299 21.0305 100.712 20.8705 99.9255 20.6972C98.7921 20.4572 97.9521 20.0905 97.4055 19.5972C96.8721 19.1039 96.6055 18.4505 96.6055 17.6372C96.6055 17.1039 96.7655 16.6039 97.0855 16.1372C97.4055 15.6572 97.8788 15.2705 98.5055 14.9772C99.1455 14.6705 99.9055 14.5172 100.785 14.5172C101.692 14.5172 102.472 14.6639 103.125 14.9572C103.779 15.2372 104.272 15.5772 104.605 15.9772C104.952 16.3772 105.125 16.7305 105.125 17.0372C105.125 17.1572 105.079 17.2639 104.985 17.3572C104.905 17.4372 104.805 17.4772 104.685 17.4772H103.185C103.039 17.4772 102.925 17.4239 102.845 17.3172C102.752 17.2505 102.599 17.1305 102.385 16.9572C102.185 16.7705 101.959 16.6239 101.705 16.5172C101.452 16.4105 101.145 16.3572 100.785 16.3572C100.292 16.3572 99.9121 16.4639 99.6455 16.6772C99.3788 16.8905 99.2455 17.1705 99.2455 17.5172C99.2455 17.7572 99.3055 17.9572 99.4255 18.1172C99.5588 18.2772 99.8188 18.4305 100.205 18.5772C100.592 18.7105 101.172 18.8505 101.945 18.9972C104.345 19.4639 105.545 20.5105 105.545 22.1372C105.545 23.0839 105.132 23.8505 104.305 24.4372C103.492 25.0239 102.352 25.3172 100.885 25.3172ZM111.63 25.1172C111.403 25.1172 111.216 25.0639 111.07 24.9572C110.936 24.8372 110.843 24.6905 110.79 24.5172L106.75 11.7172L106.71 11.5372C106.71 11.4305 106.75 11.3372 106.83 11.2572C106.923 11.1639 107.03 11.1172 107.15 11.1172H109.77C109.97 11.1172 110.13 11.1772 110.25 11.2972C110.383 11.4039 110.47 11.5239 110.51 11.6572L113.23 20.6972L115.97 11.6572C116.01 11.5105 116.09 11.3839 116.21 11.2772C116.343 11.1705 116.51 11.1172 116.71 11.1172H119.33C119.45 11.1172 119.55 11.1639 119.63 11.2572C119.71 11.3372 119.75 11.4305 119.75 11.5372C119.75 11.6039 119.743 11.6639 119.73 11.7172L115.67 24.5172C115.63 24.6905 115.536 24.8372 115.39 24.9572C115.256 25.0639 115.076 25.1172 114.85 25.1172H111.63ZM122.075 25.1172C121.942 25.1172 121.822 25.0705 121.715 24.9772C121.622 24.8705 121.575 24.7505 121.575 24.6172V11.6372C121.575 11.4905 121.622 11.3705 121.715 11.2772C121.808 11.1705 121.928 11.1172 122.075 11.1172H127.735C129.468 11.1172 130.828 11.5105 131.815 12.2972C132.802 13.0839 133.295 14.2372 133.295 15.7572C133.295 17.2772 132.802 18.4172 131.815 19.1772C130.828 19.9239 129.468 20.2972 127.735 20.2972H125.455V24.6172C125.455 24.7505 125.408 24.8705 125.315 24.9772C125.222 25.0705 125.102 25.1172 124.955 25.1172H122.075ZM127.635 17.4372C128.182 17.4372 128.608 17.2972 128.915 17.0172C129.235 16.7239 129.395 16.2972 129.395 15.7372C129.395 15.2172 129.248 14.7972 128.955 14.4772C128.675 14.1572 128.235 13.9972 127.635 13.9972H125.395V17.4372H127.635ZM135.649 25.1172C135.516 25.1172 135.396 25.0705 135.289 24.9772C135.196 24.8705 135.149 24.7505 135.149 24.6172V11.6372C135.149 11.4905 135.196 11.3705 135.289 11.2772C135.382 11.1705 135.502 11.1172 135.649 11.1172H137.909C138.216 11.1172 138.442 11.2439 138.589 11.4972L143.309 18.9572V11.6372C143.309 11.4905 143.356 11.3705 143.449 11.2772C143.542 11.1705 143.662 11.1172 143.809 11.1172H146.349C146.496 11.1172 146.616 11.1705 146.709 11.2772C146.802 11.3705 146.849 11.4905 146.849 11.6372V24.5972C146.849 24.7439 146.802 24.8705 146.709 24.9772C146.616 25.0705 146.496 25.1172 146.349 25.1172H144.089C143.782 25.1172 143.556 24.9905 143.409 24.7372L138.709 17.5772V24.6172C138.709 24.7639 138.656 24.8839 138.549 24.9772C138.456 25.0705 138.336 25.1172 138.189 25.1172H135.649Z" fill="#0B132A"/>
<path d="M31.1473 13.6477L31.1255 13.626C31.1238 13.6247 31.1224 13.6231 31.1215 13.6212L17.5006 0L3.87983 13.6209C3.87826 13.6225 3.8758 13.6256 3.8758 13.6256L3.85333 13.6474C1.77053 15.7419 0.447586 18.4725 0.0948177 21.4052C-0.25795 24.3379 0.379698 27.3044 1.90639 29.8331C3.43309 32.3619 5.76122 34.3077 8.52069 35.3612C11.2802 36.4147 14.3126 36.5157 17.136 35.6477C17.3735 35.5751 17.6275 35.5751 17.8651 35.6477C20.6882 36.5153 23.7205 36.4144 26.4798 35.3607C29.2391 34.307 31.567 32.3613 33.0936 29.8328C34.6202 27.3042 35.2579 24.3379 34.9053 21.4054C34.5526 18.4728 33.2299 15.7422 31.1473 13.6477ZM8.7232 22.6298C8.65689 22.6961 8.6043 22.7749 8.56844 22.8615C8.53257 22.948 8.5141 23.0408 8.51412 23.1346C8.53835 25.5386 9.21776 27.8904 10.4792 29.9371C10.5079 29.9835 10.5211 30.0379 10.517 30.0922C10.513 30.1465 10.4918 30.1982 10.4566 30.2399C10.4213 30.2816 10.3738 30.311 10.3209 30.324C10.2679 30.337 10.2122 30.333 10.1616 30.3124C9.21332 29.9135 8.35182 29.3336 7.62531 28.6053C6.13646 27.1162 5.29946 25.097 5.2981 22.9912C5.29675 20.8855 6.13117 18.8652 7.61812 17.3743L17.5006 7.49273L27.3826 17.3743C28.8698 18.865 29.7045 20.8853 29.703 22.9912C29.7018 25.097 28.8647 27.1162 27.3757 28.6053C26.6492 29.3336 25.7877 29.9135 24.8396 30.3124C24.7889 30.333 24.7332 30.337 24.6802 30.324C24.6273 30.311 24.5798 30.2814 24.5445 30.2399C24.5093 30.1982 24.488 30.1465 24.484 30.092C24.4799 30.0377 24.4931 29.9833 24.5218 29.9369C25.7835 27.8904 26.4633 25.5386 26.4879 23.1346C26.4879 23.0408 26.4692 22.948 26.4332 22.8613C26.3971 22.7746 26.3444 22.696 26.2779 22.6296L21.6037 17.6717C21.5571 17.6329 21.4985 17.6116 21.4378 17.6116C21.3773 17.6116 21.3186 17.6329 21.2721 17.6717C21.2255 17.7104 21.1942 17.7644 21.1833 17.824C21.1724 17.8837 21.1828 17.945 21.2127 17.9978C23.0281 21.283 21.467 26.0017 18.8637 28.6053L18.85 28.6191C18.4907 28.9745 18.0056 29.1738 17.5002 29.1736C16.9948 29.1734 16.5098 28.9738 16.1508 28.6182L16.1382 28.6053C13.5339 26.0017 11.9736 21.2835 13.7893 17.9985C13.8192 17.9457 13.8296 17.8844 13.8187 17.8247C13.8079 17.7651 13.7764 17.7111 13.7299 17.6724C13.6834 17.6336 13.6247 17.6123 13.5642 17.6123C13.5036 17.6123 13.4449 17.6336 13.3984 17.6724L8.7232 22.6298Z" fill="#F53838"/>
</svg>
