<svg width="30" height="31" viewBox="0 0 30 31" fill="none" xmlns="http://www.w3.org/2000/svg">
<path d="M6.25 14.0035H21.075L16.5375 8.55352C16.3253 8.29825 16.2232 7.96915 16.2537 7.63861C16.2842 7.30808 16.4447 7.00319 16.7 6.79102C16.9553 6.57885 17.2844 6.47677 17.6149 6.50724C17.9454 6.53772 18.2503 6.69825 18.4625 6.95352L24.7125 14.4535C24.7545 14.5132 24.7922 14.5758 24.825 14.641C24.825 14.7035 24.825 14.741 24.9125 14.8035C24.9692 14.9468 24.9988 15.0994 25 15.2535C24.9988 15.4076 24.9692 15.5602 24.9125 15.7035C24.9125 15.766 24.9125 15.8035 24.825 15.866C24.7922 15.9312 24.7545 15.9939 24.7125 16.0535L18.4625 23.5535C18.345 23.6946 18.1978 23.8081 18.0314 23.8859C17.8651 23.9636 17.6836 24.0038 17.5 24.0035C17.2079 24.0041 16.9249 23.9024 16.7 23.716C16.5734 23.6111 16.4688 23.4822 16.3921 23.3368C16.3154 23.1913 16.2682 23.0322 16.2531 22.8685C16.238 22.7048 16.2553 22.5397 16.3041 22.3827C16.3529 22.2257 16.4322 22.0798 16.5375 21.9535L21.075 16.5035H6.25C5.91848 16.5035 5.60054 16.3718 5.36612 16.1374C5.13169 15.903 5 15.585 5 15.2535C5 14.922 5.13169 14.6041 5.36612 14.3696C5.60054 14.1352 5.91848 14.0035 6.25 14.0035Z" fill="white"/>
</svg>
