<svg width="30" height="31" viewBox="0 0 30 31" fill="none" xmlns="http://www.w3.org/2000/svg">
<path d="M23.75 14.0035H8.925L13.4625 8.55352C13.6747 8.29825 13.7768 7.96915 13.7463 7.63861C13.7158 7.30808 13.5553 7.00319 13.3 6.79102C13.0447 6.57885 12.7156 6.47677 12.3851 6.50724C12.0546 6.53772 11.7497 6.69825 11.5375 6.95352L5.2875 14.4535C5.24545 14.5132 5.20785 14.5758 5.175 14.641C5.175 14.7035 5.175 14.741 5.0875 14.8035C5.03084 14.9468 5.00118 15.0994 5 15.2535C5.00118 15.4076 5.03084 15.5602 5.0875 15.7035C5.0875 15.766 5.0875 15.8035 5.175 15.866C5.20785 15.9312 5.24545 15.9939 5.2875 16.0535L11.5375 23.5535C11.655 23.6946 11.8022 23.8081 11.9686 23.8859C12.1349 23.9636 12.3164 24.0038 12.5 24.0035C12.7921 24.0041 13.0751 23.9024 13.3 23.716C13.4266 23.6111 13.5312 23.4822 13.6079 23.3368C13.6846 23.1913 13.7318 23.0322 13.7469 22.8685C13.762 22.7048 13.7447 22.5397 13.6959 22.3827C13.6471 22.2257 13.5678 22.0798 13.4625 21.9535L8.925 16.5035H23.75C24.0815 16.5035 24.3995 16.3718 24.6339 16.1374C24.8683 15.903 25 15.585 25 15.2535C25 14.922 24.8683 14.6041 24.6339 14.3696C24.3995 14.1352 24.0815 14.0035 23.75 14.0035Z" fill="#F53838"/>
</svg>
