<svg width="25" height="25" viewBox="0 0 25 25" fill="none" xmlns="http://www.w3.org/2000/svg">
<path d="M11.4481 17.2782C11.3169 17.2785 11.1869 17.2528 11.0655 17.2027C10.9442 17.1526 10.834 17.0791 10.7411 16.9862L6.49915 12.7432C6.40357 12.6511 6.32731 12.5408 6.27482 12.4188C6.22233 12.2968 6.19465 12.1656 6.1934 12.0329C6.19216 11.9001 6.21737 11.7684 6.26756 11.6455C6.31775 11.5225 6.39193 11.4108 6.48575 11.3169C6.57958 11.2229 6.69118 11.1486 6.81404 11.0982C6.9369 11.0478 7.06856 11.0224 7.20133 11.0235C7.33411 11.0246 7.46535 11.052 7.58739 11.1044C7.70943 11.1567 7.81983 11.2328 7.91215 11.3282L11.4471 14.8632L17.8121 8.50023C17.9997 8.31259 18.254 8.20713 18.5193 8.20703C18.7846 8.20694 19.039 8.31223 19.2266 8.49973C19.4143 8.68724 19.5198 8.94161 19.5198 9.20688C19.5199 9.47215 19.4147 9.72659 19.2271 9.91423L12.1551 16.9862C12.0623 17.0791 11.9521 17.1526 11.8308 17.2027C11.7094 17.2528 11.5794 17.2785 11.4481 17.2782Z" fill="#2FAB73"/>
</svg>
