<svg width="35" height="35" viewBox="0 0 35 35" fill="none" xmlns="http://www.w3.org/2000/svg">
<path d="M17.3996 0.580078C8.12111 0.580078 0.599609 8.10158 0.599609 17.3801C0.599609 26.6586 8.12111 34.1801 17.3996 34.1801C26.6781 34.1801 34.1996 26.6586 34.1996 17.3801C34.1996 8.10158 26.6781 0.580078 17.3996 0.580078ZM24.2334 14.3421C24.2404 14.4856 24.2421 14.6291 24.2421 14.7691C24.2421 19.1441 20.9154 24.1858 14.8289 24.1858C13.0304 24.1888 11.2693 23.6723 9.75736 22.6983C10.0146 22.7298 10.2789 22.7421 10.5466 22.7421C12.0971 22.7421 13.5234 22.2153 14.6556 21.3263C13.9656 21.3128 13.297 21.0843 12.7431 20.6727C12.1891 20.2612 11.7773 19.687 11.5651 19.0303C12.0606 19.1246 12.5711 19.1048 13.0579 18.9726C12.3089 18.8211 11.6355 18.4153 11.1516 17.824C10.6677 17.2326 10.4033 16.4922 10.4031 15.7281V15.6878C10.8494 15.9346 11.3604 16.0851 11.9029 16.1026C11.2008 15.6352 10.7037 14.9173 10.5134 14.0956C10.3231 13.2739 10.454 12.4105 10.8791 11.6821C11.7103 12.7041 12.7468 13.5401 13.9216 14.1361C15.0964 14.7321 16.3833 15.0747 17.6989 15.1418C17.5316 14.4319 17.6036 13.6865 17.9036 13.0217C18.2037 12.3569 18.7149 11.8098 19.358 11.4655C20.001 11.1213 20.7398 10.9991 21.4594 11.118C22.1791 11.2369 22.8393 11.5903 23.3374 12.1231C24.0779 11.9766 24.7881 11.7049 25.4374 11.3198C25.1905 12.0866 24.6738 12.7376 23.9831 13.1521C24.6391 13.0731 25.2796 12.8967 25.8836 12.6288C25.44 13.2936 24.8811 13.8738 24.2334 14.3421Z" fill="white"/>
</svg>
