<svg width="25" height="25" viewBox="0 0 25 25" fill="none" xmlns="http://www.w3.org/2000/svg">
<path fill-rule="evenodd" clip-rule="evenodd" d="M12.4996 11.3484C13.4544 11.3484 14.3701 10.9692 15.0452 10.294C15.7203 9.61889 16.0996 8.70322 16.0996 7.74844C16.0996 6.79366 15.7203 5.87798 15.0452 5.20285C14.3701 4.52772 13.4544 4.14844 12.4996 4.14844C11.5448 4.14844 10.6292 4.52772 9.95403 5.20285C9.27889 5.87798 8.89961 6.79366 8.89961 7.74844C8.89961 8.70322 9.27889 9.61889 9.95403 10.294C10.6292 10.9692 11.5448 11.3484 12.4996 11.3484ZM7.39826 22.1484C5.57647 22.1484 4.04185 20.617 4.73902 18.9339C5.16116 17.9148 5.7799 16.9888 6.55991 16.2087C7.33992 15.4287 8.26593 14.81 9.28507 14.3878C10.3042 13.9657 11.3965 13.7484 12.4996 13.7484C13.6027 13.7484 14.695 13.9657 15.7142 14.3878C16.7333 14.81 17.6593 15.4287 18.4393 16.2087C19.2193 16.9888 19.8381 17.9148 20.2602 18.9339C20.9574 20.617 19.4228 22.1484 17.601 22.1484H7.39826Z" fill="#F53838"/>
</svg>
