<svg width="16" height="17" viewBox="0 0 16 17" fill="none" xmlns="http://www.w3.org/2000/svg">
<path d="M14.1887 6.41876L10.2215 5.84219L8.4481 2.24688C8.39966 2.14844 8.31998 2.06876 8.22154 2.02032C7.97466 1.89844 7.67466 2.00001 7.55123 2.24688L5.77779 5.84219L1.8106 6.41876C1.70123 6.43438 1.60123 6.48594 1.52466 6.56407C1.4321 6.6592 1.3811 6.78719 1.38286 6.91992C1.38461 7.05264 1.43899 7.17923 1.53404 7.27188L4.40435 10.0703L3.72623 14.0219C3.71032 14.1138 3.7205 14.2083 3.75559 14.2948C3.79068 14.3812 3.84929 14.4561 3.92477 14.5109C4.00025 14.5657 4.08958 14.5983 4.18263 14.6049C4.27568 14.6116 4.36873 14.592 4.45123 14.5484L7.99966 12.6828L11.5481 14.5484C11.645 14.6 11.7575 14.6172 11.8653 14.5984C12.1372 14.5516 12.32 14.2938 12.2731 14.0219L11.595 10.0703L14.4653 7.27188C14.5434 7.19532 14.595 7.09532 14.6106 6.98594C14.6528 6.71251 14.4622 6.45938 14.1887 6.41876Z" fill="#FEA250"/>
</svg>
